<svg xmlns="http://www.w3.org/2000/svg" xmlns:xlink="http://www.w3.org/1999/xlink" width="475" zoomAndPan="magnify" viewBox="0 0 356.25 576.749988" height="769" preserveAspectRatio="xMidYMid meet" version="1.0"><defs><clipPath id="c7ab4e3813"><path d="M 0 0.480469 L 355.5 0.480469 L 355.5 576.019531 L 0 576.019531 Z M 0 0.480469 " clip-rule="nonzero"/></clipPath><clipPath id="af7013974d"><path d="M 154 17 L 354.875 17 L 354.875 555 L 154 555 Z M 154 17 " clip-rule="nonzero"/></clipPath><clipPath id="5bc7e382ee"><path d="M 147.933594 0.988281 L 336 0.988281 L 336 575.777344 L 147.933594 575.777344 Z M 147.933594 0.988281 " clip-rule="nonzero"/></clipPath><clipPath id="507593fb30"><path d="M 0 0.480469 L 152.121094 0.480469 L 152.121094 575.4375 L 0 575.4375 Z M 0 0.480469 " clip-rule="nonzero"/></clipPath></defs><g clip-path="url(#c7ab4e3813)"><path fill="#B8D7D5" d="M 0 0.480469 L 355.5 0.480469 L 355.5 576.019531 L 0 576.019531 Z M 0 0.480469 " fill-opacity="1" fill-rule="nonzero"/></g><g clip-path="url(#af7013974d)"><path fill="#6d8b85" d="M 354.875 23.644531 C 352.210938 26.726562 349.667969 29.84375 347.320312 33.148438 C 347.027344 33.5625 346.859375 34.027344 346.859375 34.46875 C 346.859375 34.859375 346.992188 35.230469 347.273438 35.527344 C 346.917969 37.609375 346.558594 39.695312 346.214844 41.777344 C 345.363281 42.289062 344.945312 43 344.945312 43.691406 C 344.945312 44.234375 345.199219 44.761719 345.699219 45.167969 C 347.9375 45.933594 349.050781 47.269531 349.050781 49.164062 C 349.050781 49.675781 348.96875 50.230469 348.808594 50.828125 C 348.527344 51.277344 348.386719 51.714844 348.386719 52.117188 C 348.386719 52.660156 348.640625 53.140625 349.160156 53.519531 C 349.808594 54.082031 350.410156 54.679688 350.964844 55.316406 C 350.148438 55.820312 349.324219 56.367188 348.140625 57.007812 C 347.417969 57.398438 346.816406 58.238281 346.816406 59.003906 C 346.816406 59.25 346.878906 59.484375 347.011719 59.699219 C 348.351562 61.769531 348.824219 64.109375 348.824219 66.578125 C 348.824219 70.570312 347.582031 74.890625 346.753906 78.925781 C 346.589844 79.101562 346.425781 79.269531 346.253906 79.449219 C 345.765625 79.941406 345.503906 80.511719 345.488281 81.054688 C 344.917969 81.273438 344.230469 81.539062 343.214844 81.894531 C 342.105469 82.289062 341.464844 83.226562 341.464844 84.089844 C 341.464844 84.769531 341.863281 85.40625 342.738281 85.695312 C 343.308594 85.878906 343.871094 86.066406 344.441406 86.253906 L 344.34375 86.339844 C 343.796875 86.71875 343.5625 87.308594 343.5625 87.878906 C 343.5625 88.34375 343.722656 88.804688 344.003906 89.128906 C 343.6875 90.609375 343.363281 92.085938 343.054688 93.566406 C 341.855469 94.40625 340.957031 95.53125 340.773438 97.074219 C 340.726562 97.496094 340.699219 97.902344 340.699219 98.304688 C 340.699219 99.316406 340.84375 100.289062 341.042969 101.300781 C 341.085938 101.539062 341.105469 101.769531 341.105469 101.996094 C 341.105469 102.738281 340.902344 103.445312 340.695312 104.160156 C 340.492188 104.867188 340.289062 105.582031 340.289062 106.320312 C 340.289062 106.539062 340.304688 106.757812 340.34375 106.980469 C 340.539062 108.042969 341.488281 108.9375 342.363281 109.503906 C 342.867188 109.839844 343.234375 110.140625 343.535156 110.433594 C 341.925781 112.816406 340.304688 115.164062 340.304688 117.359375 C 340.304688 118.054688 340.46875 118.738281 340.851562 119.402344 C 338.484375 121.003906 337.597656 122.8125 337.597656 124.707031 C 337.597656 126.5 338.394531 128.367188 339.488281 130.21875 C 339.449219 130.347656 339.410156 130.472656 339.390625 130.617188 C 339.386719 130.6875 339.382812 130.757812 339.382812 130.828125 C 339.382812 131.503906 339.722656 131.96875 340.214844 132.238281 C 340.328125 132.324219 340.476562 132.378906 340.617188 132.4375 C 338.484375 134.472656 336.308594 136.066406 333.734375 137.90625 C 333.980469 138.664062 334.125 139.535156 334.125 140.386719 C 334.125 141.351562 333.941406 142.296875 333.511719 143.039062 C 333.695312 143.535156 333.769531 144.0625 333.769531 144.617188 C 333.769531 146.796875 332.644531 149.363281 332.566406 151.617188 C 332.566406 151.625 332.566406 151.632812 332.566406 151.640625 C 332.566406 152.25 333.253906 153.875 333.289062 154.921875 C 333.292969 154.949219 333.292969 154.976562 333.292969 155.003906 C 333.292969 156.140625 332.355469 157.425781 332.277344 158.652344 C 332.386719 158.785156 332.824219 159.074219 332.9375 159.191406 C 331.984375 160.242188 330.628906 160.765625 329.480469 161.695312 C 329.621094 162.113281 329.738281 162.5 329.84375 162.882812 L 329.902344 163.09375 C 330.085938 163.808594 330.183594 164.488281 330.183594 165.140625 C 330.183594 165.21875 330.183594 165.292969 330.179688 165.367188 L 330.179688 165.40625 C 330.144531 166.199219 329.945312 166.964844 329.507812 167.75 C 330.714844 168.203125 331.488281 170.882812 331.757812 173.269531 L 331.761719 173.304688 C 331.828125 173.894531 331.859375 174.464844 331.859375 174.976562 C 331.859375 176.257812 331.65625 177.195312 331.214844 177.207031 C 331.6875 177.199219 332.273438 177.402344 332.742188 177.355469 C 333.640625 180.707031 336.035156 177.632812 336.625 181.097656 C 336.644531 181.203125 336.652344 181.3125 336.652344 181.421875 C 336.652344 182.398438 335.992188 183.578125 335.328125 184.6875 C 334.664062 185.796875 334.003906 186.828125 334.003906 187.515625 C 334.003906 188.015625 334.355469 188.332031 335.320312 188.347656 C 335.953125 188.355469 336.511719 188.417969 337.03125 188.496094 C 336.726562 190.101562 336.09375 191.671875 334.875 193.335938 C 334.625 193.683594 334.515625 194.039062 334.515625 194.382812 C 334.515625 195.195312 335.132812 195.929688 335.957031 196.242188 C 335.949219 196.238281 335.9375 196.238281 335.9375 196.246094 C 335.9375 196.355469 336.757812 197.355469 337.75 198.660156 C 337.457031 198.789062 337.175781 198.933594 336.871094 199.054688 C 336.15625 199.339844 335.738281 200.152344 335.738281 200.898438 C 335.738281 201.210938 335.816406 201.519531 335.980469 201.757812 C 335.957031 201.71875 333.734375 204.746094 332.8125 206.511719 C 332.703125 206.722656 332.613281 206.914062 332.542969 207.078125 L 332.523438 207.140625 C 332.460938 207.304688 332.421875 207.4375 332.414062 207.539062 C 332.414062 207.578125 332.414062 207.617188 332.414062 207.65625 C 332.414062 207.898438 332.433594 208.128906 332.457031 208.351562 C 332.484375 208.570312 332.523438 208.78125 332.570312 208.992188 C 333.070312 211.109375 334.820312 212.722656 336.683594 214.023438 C 335.984375 214.742188 335.277344 215.457031 334.582031 216.175781 C 334.261719 216.449219 334.09375 216.746094 333.992188 217.046875 C 333.273438 217.269531 332.546875 217.484375 331.792969 217.648438 C 330.886719 217.839844 330.214844 218.699219 330.179688 219.554688 C 330.175781 219.714844 330.167969 219.882812 330.160156 220.042969 C 330.160156 220.066406 330.160156 220.089844 330.160156 220.105469 C 330.160156 220.910156 330.742188 221.808594 331.617188 221.957031 C 332.378906 222.082031 333.042969 222.371094 333.6875 222.699219 C 333.085938 223.671875 332.828125 224.597656 332.828125 225.5 C 332.828125 227.457031 334.050781 229.277344 335.53125 231.105469 C 335.625 232.039062 335.710938 232.960938 335.8125 233.894531 C 336.179688 237.140625 336.75 240.363281 337.328125 243.585938 C 337.132812 243.890625 336.878906 244.199219 336.503906 244.503906 C 335.347656 245.441406 334.914062 246.667969 334.914062 248.027344 C 334.914062 250.914062 336.882812 254.355469 337.960938 256.605469 C 338.296875 258.050781 338.632812 259.628906 339.191406 261.089844 C 339.246094 261.492188 339.3125 261.902344 339.363281 262.308594 C 338.425781 263.914062 337.03125 265.238281 336.296875 267.019531 C 336.097656 267.5 336.011719 267.933594 336.011719 268.339844 C 336.011719 269.523438 336.722656 270.460938 337.425781 271.449219 C 338.132812 272.441406 338.835938 273.484375 338.835938 274.878906 C 338.835938 275.679688 338.605469 276.597656 338 277.691406 C 337.351562 278.855469 337.074219 280.261719 337.074219 281.625 C 337.074219 282.300781 337.136719 282.960938 337.269531 283.582031 C 337.359375 284.039062 337.40625 284.507812 337.476562 284.972656 C 334.964844 288.527344 332.90625 293.050781 332.90625 297.058594 C 332.90625 299.359375 333.585938 301.484375 335.238281 303.167969 C 334.910156 304.070312 334.765625 305.027344 334.765625 306.011719 C 334.765625 307.640625 335.171875 309.347656 335.875 311.015625 C 335.882812 314.519531 336.242188 317.984375 336.828125 321.523438 C 337.050781 322.859375 337.148438 324.066406 337.148438 325.175781 C 337.148438 330.359375 335.085938 333.484375 334.65625 338.769531 C 334.535156 340.285156 334.476562 341.800781 334.476562 343.320312 C 334.476562 345.949219 334.648438 348.589844 334.96875 351.210938 C 335.242188 353.46875 338.289062 357.691406 338.289062 360.597656 C 338.289062 361.398438 338.0625 362.101562 337.476562 362.632812 C 337.109375 362.964844 336.9375 363.433594 336.9375 363.90625 C 336.9375 364.296875 337.050781 364.691406 337.265625 365.03125 L 337.328125 365.160156 L 337.3125 365.3125 C 337.378906 366.597656 337.742188 367.128906 338.101562 367.511719 C 338.226562 368.332031 338.277344 369.210938 338.277344 370.097656 C 338.277344 371.8125 338.101562 373.550781 338.007812 374.910156 C 338.003906 374.957031 338.003906 374.996094 338.003906 375.035156 C 338.003906 375.671875 338.324219 376.140625 338.792969 376.433594 C 339.539062 378.136719 340.515625 381.402344 341.207031 380.335938 C 341.042969 380.589844 340.964844 380.878906 340.964844 381.183594 C 340.964844 381.75 341.238281 382.347656 341.671875 382.734375 C 341.8125 382.859375 341.917969 382.957031 342.039062 383.066406 C 341.605469 384.328125 341.308594 385.632812 341.25 386.960938 C 341.25 386.996094 341.246094 387.03125 341.246094 387.066406 C 341.246094 387.933594 341.648438 389.371094 342.050781 390.875 C 342.453125 392.375 342.851562 393.933594 342.851562 395.035156 C 342.851562 395.5625 342.761719 395.988281 342.53125 396.25 C 342.21875 396.601562 342 397.113281 342 397.625 C 342 397.984375 342.109375 398.347656 342.371094 398.648438 C 343.367188 399.8125 343.886719 401.148438 343.886719 402.492188 C 343.886719 404.40625 342.835938 406.335938 340.652344 407.796875 C 340.085938 408.175781 339.75 408.808594 339.75 409.453125 C 339.75 409.96875 339.96875 410.496094 340.464844 410.902344 C 342.109375 412.238281 342.636719 412.714844 342.636719 413.359375 C 342.636719 413.867188 342.3125 414.476562 341.941406 415.695312 C 341.898438 415.839844 341.875 415.992188 341.875 416.160156 C 341.875 416.902344 342.308594 417.796875 342.742188 418.691406 C 343.171875 419.589844 343.605469 420.496094 343.605469 421.269531 C 343.605469 421.796875 343.402344 422.253906 342.871094 422.613281 C 342.285156 423.003906 342.003906 423.546875 342.003906 424.117188 C 342.003906 424.65625 342.25 425.222656 342.710938 425.714844 C 343.394531 427.109375 343.738281 428.316406 343.738281 429.335938 C 343.738281 431.105469 342.707031 432.324219 340.652344 432.984375 C 340.097656 433.3125 339.769531 433.964844 339.769531 434.621094 C 339.769531 435.164062 339.996094 435.710938 340.511719 436.082031 C 343.765625 438.410156 344.949219 440.054688 344.949219 441.367188 C 344.949219 444.632812 337.636719 445.84375 336.699219 450.40625 C 336.636719 450.734375 336.601562 451.054688 336.601562 451.359375 C 336.601562 454.808594 340.515625 457.109375 342.820312 460.050781 C 343.027344 460.3125 343.199219 460.566406 343.398438 460.824219 C 343.996094 464.203125 344.699219 467.722656 345.632812 471.007812 C 345.878906 471.886719 346.316406 472.941406 346.8125 474.078125 C 346.683594 474.464844 346.597656 474.835938 346.433594 475.234375 C 345.804688 476.742188 344.835938 478.953125 344.835938 480.703125 C 344.835938 480.765625 344.835938 480.824219 344.839844 480.886719 C 344.953125 483.578125 345.910156 485.628906 347.359375 487.515625 C 346.730469 488.039062 346.113281 488.609375 345.648438 489.367188 C 345.355469 489.847656 345.097656 491.96875 344.851562 492.683594 C 344.476562 493.769531 342.945312 493.164062 342.945312 494.039062 C 342.945312 494.328125 343.109375 494.78125 343.542969 495.511719 C 342.507812 496.027344 341.96875 497.199219 341.378906 497.902344 C 341.632812 497.976562 341.882812 498.042969 342.136719 498.097656 C 341.578125 498.835938 341.386719 500.601562 340.957031 501.324219 C 341.449219 501.652344 342.070312 502.429688 342.503906 502.707031 C 341.824219 504.199219 339.695312 507.214844 339.695312 509.746094 C 339.695312 510.664062 339.96875 511.511719 340.695312 512.203125 C 340.433594 512.375 340.246094 512.65625 340.039062 512.941406 L 340.039062 512.945312 L 339.796875 513.214844 L 339.625 513.40625 C 339.46875 513.53125 339.285156 513.636719 339.058594 513.703125 C 339.121094 514.132812 339.242188 514.550781 339.386719 514.96875 C 339.449219 515.136719 339.523438 515.300781 339.597656 515.46875 C 339.695312 515.691406 339.792969 515.917969 339.914062 516.132812 C 340.03125 516.355469 340.15625 516.574219 340.292969 516.789062 C 340.371094 516.914062 340.453125 517.042969 340.542969 517.164062 C 340.726562 517.425781 340.90625 517.695312 341.109375 517.941406 C 341.324219 518.21875 341.542969 518.496094 341.777344 518.75 C 340.375 518.929688 339.726562 519.683594 339.726562 520.484375 C 339.726562 521.515625 340.800781 522.625 342.726562 522.695312 C 341.777344 523.464844 341.4375 524.449219 341.4375 525.574219 C 341.4375 527.6875 342.625 530.308594 343.179688 532.945312 C 342.707031 532.988281 342.1875 533.085938 341.707031 533.085938 C 342.230469 535.480469 344.621094 536.875 346.679688 537.378906 C 344.660156 538.003906 344.824219 540.527344 343.890625 541.90625 C 344.148438 541.96875 344.402344 542.03125 344.664062 542.078125 C 344.453125 542.863281 344.359375 543.878906 344.359375 544.980469 C 344.359375 547.183594 344.757812 549.742188 345.464844 551.445312 C 345.988281 552.714844 347.386719 553.84375 348.605469 554.996094 C 346.382812 554.992188 344.15625 554.992188 341.929688 554.988281 C 286.890625 554.933594 231.851562 554.871094 176.808594 554.820312 C 162.109375 466.34375 154.761719 377.074219 154.761719 287.773438 C 154.761719 197.371094 162.296875 106.933594 177.367188 17.371094 C 234.613281 17.425781 291.863281 17.488281 349.113281 17.546875 C 349.167969 17.878906 349.242188 18.183594 349.351562 18.476562 L 349.378906 18.539062 C 349.480469 18.808594 349.609375 19.066406 349.761719 19.3125 C 350.648438 20.746094 352.335938 21.671875 354.546875 22.339844 C 354.539062 22.421875 354.53125 22.511719 354.53125 22.59375 C 354.53125 22.976562 354.648438 23.339844 354.875 23.644531 " fill-opacity="1" fill-rule="nonzero"/></g><g clip-path="url(#5bc7e382ee)"><path fill="#e3f2f1" d="M 147.5625 575.9375 L 321.746094 576.125 C 320.703125 574.886719 319.476562 573.671875 319.15625 572.304688 C 318.503906 569.542969 318.871094 564.753906 319.882812 562.214844 C 319.628906 562.164062 319.375 562.101562 319.125 562.03125 C 320.296875 560.542969 320.523438 557.835938 322.671875 557.160156 C 320.664062 556.617188 318.464844 555.117188 318.304688 552.539062 C 318.796875 552.539062 319.335938 552.429688 319.824219 552.390625 C 319.585938 548.039062 317.824219 543.738281 320.917969 541.367188 C 317.460938 541.230469 317.238281 537.5625 320.539062 537.121094 C 319.4375 535.589844 318.515625 533.71875 318.515625 531.695312 C 319.445312 531.453125 319.753906 530.476562 320.382812 530.085938 C 317.996094 527.273438 322.332031 522.070312 323.539062 519.886719 C 323.140625 519.585938 322.617188 518.753906 322.160156 518.398438 C 322.695312 517.628906 323.128906 515.734375 323.789062 514.9375 C 323.539062 514.875 323.289062 514.804688 323.042969 514.726562 C 323.734375 513.976562 324.441406 512.710938 325.558594 512.160156 C 324.167969 509.011719 326.558594 510.675781 327.253906 509.125 C 327.59375 508.359375 328.132812 506.082031 328.484375 505.566406 C 329.050781 504.75 329.753906 504.144531 330.457031 503.578125 C 329.230469 501.558594 328.507812 499.355469 328.722656 496.472656 C 328.863281 494.566406 330.179688 492.078125 331.019531 490.402344 C 331.234375 489.976562 331.371094 489.578125 331.542969 489.164062 C 331.175781 487.949219 330.855469 486.8125 330.703125 485.871094 C 330.132812 482.351562 329.820312 478.582031 329.585938 474.957031 C 329.414062 474.683594 329.261719 474.410156 329.082031 474.132812 C 326.886719 470.691406 322.664062 468.078125 323.898438 463.796875 C 325.878906 456.949219 339.90625 457.148438 329.171875 448.457031 C 328.085938 447.574219 328.527344 445.785156 329.597656 445.140625 C 332.988281 444.023438 333.90625 441.429688 332.34375 437.363281 C 331.457031 436.269531 331.550781 434.851562 332.765625 434.042969 C 335.21875 432.414062 331.640625 428.730469 332.402344 426.644531 C 333.480469 423.675781 334.074219 424.074219 331.285156 421.515625 C 330.230469 420.542969 330.628906 418.921875 331.710938 418.195312 C 335.671875 415.535156 336.394531 411.429688 334.125 408.410156 C 333.542969 407.632812 333.871094 406.496094 334.457031 405.847656 C 335.78125 404.382812 333.554688 398.121094 333.769531 395.917969 C 333.910156 394.496094 334.289062 393.105469 334.804688 391.753906 C 334.691406 391.640625 334.585938 391.53125 334.457031 391.402344 C 333.816406 390.765625 333.597656 389.621094 334.125 388.84375 C 333.363281 389.972656 332.570312 386.484375 331.90625 384.667969 C 331.417969 384.332031 331.109375 383.789062 331.195312 383.042969 C 331.449219 380.835938 331.949219 377.695312 331.675781 375.136719 C 331.335938 374.726562 330.992188 374.160156 330.992188 372.785156 L 331.011719 372.625 L 330.957031 372.484375 C 330.507812 371.679688 330.578125 370.574219 331.285156 369.921875 C 334.148438 367.289062 329.488281 360.792969 329.25 357.71875 C 328.902344 353.300781 328.917969 348.847656 329.390625 344.4375 C 330.121094 337.578125 333.179688 334.140625 332.0625 326.019531 C 331.542969 322.242188 331.25 318.546875 331.289062 314.800781 C 330.195312 311.957031 329.847656 308.996094 330.75 306.429688 C 326.203125 301.503906 329.105469 292.980469 333.105469 287.003906 C 333.035156 286.507812 332.988281 286.011719 332.894531 285.515625 C 332.496094 283.511719 332.652344 281.085938 333.617188 279.230469 C 336.6875 273.324219 330.148438 272.152344 331.796875 267.84375 C 332.527344 265.9375 333.914062 264.527344 334.851562 262.8125 C 334.789062 262.378906 334.71875 261.945312 334.648438 261.507812 C 334.0625 259.953125 333.691406 258.265625 333.324219 256.722656 C 331.664062 253.199219 327.988281 246.933594 331.578125 243.804688 C 331.953125 243.476562 332.203125 243.148438 332.390625 242.820312 C 331.722656 239.382812 331.046875 235.941406 330.574219 232.472656 C 330.4375 231.476562 330.3125 230.488281 330.195312 229.496094 C 327.902344 226.648438 326.1875 223.828125 328.011719 220.515625 C 327.339844 220.171875 326.65625 219.859375 325.878906 219.726562 C 324.964844 219.5625 324.328125 218.5625 324.328125 217.6875 L 324.328125 217.160156 C 324.328125 216.25 324.964844 215.328125 325.878906 215.121094 C 326.640625 214.945312 327.367188 214.71875 328.085938 214.484375 C 328.175781 214.160156 328.335938 213.84375 328.644531 213.550781 C 329.324219 212.785156 330 212.019531 330.679688 211.253906 C 328.308594 209.566406 326.046875 207.390625 326.046875 204.328125 C 326.046875 203.191406 329.335938 198.101562 329.371094 198.152344 C 328.777344 197.28125 329.121094 195.691406 330.128906 195.261719 C 330.429688 195.128906 330.707031 194.976562 330.996094 194.839844 C 329.828125 193.328125 328.882812 192.191406 329.046875 192.25 C 327.835938 191.78125 326.988281 190.394531 327.785156 189.148438 C 328.921875 187.375 329.46875 185.695312 329.683594 183.980469 C 329.148438 183.894531 328.578125 183.832031 327.941406 183.820312 C 324.128906 183.746094 329.433594 178.882812 328.800781 176.070312 C 327.972656 172.363281 325.753906 175.65625 324.617188 172.070312 C 324.144531 172.121094 323.535156 171.902344 323.054688 171.914062 C 324.414062 171.875 322.996094 162.710938 320.65625 161.796875 C 321.585938 159.773438 321.160156 157.835938 320.164062 155.324219 C 321.257812 154.328125 322.589844 153.769531 323.472656 152.644531 C 323.347656 152.519531 322.886719 152.214844 322.765625 152.066406 C 322.746094 150.726562 323.625 149.320312 323.488281 148.082031 C 323.363281 146.941406 322.507812 145.175781 322.480469 144.542969 C 322.339844 141.511719 323.820312 137.964844 322.695312 135.363281 C 323.390625 133.859375 323.132812 131.589844 322.453125 129.871094 C 324.890625 127.898438 326.949219 126.195312 328.910156 124.015625 C 328.761719 123.953125 328.613281 123.898438 328.488281 123.800781 C 327.917969 123.484375 327.496094 122.921875 327.496094 122.066406 C 327.496094 121.914062 327.523438 121.777344 327.550781 121.644531 C 324.894531 117.566406 323.503906 113.394531 327.84375 110.058594 C 325.953125 107.117188 327.800781 103.816406 329.601562 100.449219 C 329.265625 100.132812 328.855469 99.808594 328.308594 99.453125 C 327.359375 98.84375 326.300781 97.882812 325.984375 96.742188 C 325.402344 94.625 326.660156 92.773438 326.042969 90.660156 C 325.601562 89.144531 325.273438 87.707031 325.277344 86.128906 C 325.28125 84.472656 326.058594 83.261719 327.167969 82.363281 C 327.304688 80.777344 327.445312 79.1875 327.585938 77.605469 C 326.867188 76.832031 326.667969 75.351562 327.585938 74.613281 L 327.671875 74.519531 C 327.074219 74.316406 326.476562 74.117188 325.878906 73.917969 C 323.792969 73.222656 323.953125 70.597656 325.878906 69.847656 C 326.863281 69.457031 327.53125 69.171875 328.070312 68.941406 C 328.023438 68.359375 328.214844 67.746094 328.644531 67.214844 C 328.796875 67.023438 328.9375 66.839844 329.085938 66.65625 C 329.59375 59.65625 331.050781 51.835938 326.730469 46.007812 C 326.027344 45.0625 326.59375 43.671875 327.484375 43.117188 C 328.59375 42.429688 329.34375 41.847656 330.105469 41.296875 C 329.449219 40.617188 328.753906 39.96875 328.015625 39.367188 C 326.992188 38.652344 326.757812 37.597656 327.257812 36.476562 C 327.621094 33.46875 326.292969 31.4375 323.257812 30.386719 C 321.960938 29.390625 321.867188 27.71875 323.257812 26.738281 C 323.292969 24.496094 323.328125 22.257812 323.363281 20.015625 C 322.65625 19.335938 322.59375 18.296875 323.03125 17.457031 C 324.886719 13.898438 326.960938 10.539062 329.148438 7.222656 C 328.808594 6.820312 328.617188 6.332031 328.601562 5.820312 C 325.394531 4.839844 323.097656 3.363281 322.28125 0.65625 L 148.097656 0.46875 L 147.5625 575.9375 " fill-opacity="1" fill-rule="nonzero"/></g><g clip-path="url(#507593fb30)"><path fill="#e3f2f1" d="M 0 0.480469 L 152.121094 0.480469 L 152.121094 575.6875 L 0 575.6875 Z M 0 0.480469 " fill-opacity="1" fill-rule="nonzero"/></g></svg>